<svg width="295" height="79" viewBox="0 0 295 79" fill="none" xmlns="http://www.w3.org/2000/svg">
<path d="M158.293 39.3517C158.293 53.7771 150.646 65.4734 141.218 65.4734C131.789 65.4734 124.142 53.7771 124.142 39.3517C124.142 24.9263 131.789 13.23 141.218 13.23C150.646 13.23 158.293 24.9263 158.293 39.3517Z" fill="#2E2D2C"/>
<path d="M154.344 13.23C154.344 13.23 154.323 13.23 154.317 13.23H148.44C150.911 14.6855 153.157 16.9 155.055 19.7955C158.488 25.051 160.382 31.996 160.382 39.3517C160.382 46.7074 158.488 53.6524 155.055 58.9079C153.162 61.8034 150.916 64.0179 148.44 65.4734H154.317C154.317 65.4734 154.339 65.4734 154.344 65.4734C163.638 65.4734 171.173 53.7771 171.173 39.3517C171.173 24.9263 163.638 13.23 154.344 13.23Z" fill="#2E2D2C"/>
<path d="M150.876 39.3516C150.876 50.1122 146.154 58.835 140.325 58.835C134.496 58.835 129.773 50.1122 129.773 39.3516C129.773 28.591 134.496 19.8682 140.325 19.8682C146.154 19.8682 150.876 28.591 150.876 39.3516Z" fill="white"/>
<path d="M135.752 35.9935H131.121V42.2939L135.752 42.3458V48.7502L141.613 49.1661V42.6058L147.234 42.7097V35.9935H141.613V29.5371L135.752 29.901V35.9935Z" fill="#EB6724"/>
<path d="M143.915 29.953L141.616 29.5371V35.9935H143.915V29.953Z" fill="#9F4826"/>
<path d="M149.536 36.1491L147.237 35.9932V42.7094L149.536 42.3456V36.1491Z" fill="#9F4826"/>
<path d="M143.915 48.5472L141.616 49.1658V42.6055L143.915 42.6419V48.5472Z" fill="#9F4826"/>
<path d="M237.667 20.4398L226.132 52.0094C225.72 53.1426 224.025 52.9815 223.838 51.7962L218.992 20.6529C218.907 20.0863 218.404 19.6704 217.816 19.6704H209.211C208.725 19.6704 208.291 19.9563 208.11 20.393L200.879 37.875C200.473 38.8523 199.051 38.8367 198.665 37.8542L191.852 20.4138C191.676 19.9667 191.237 19.6704 190.74 19.6704H182.242C181.665 19.6704 181.167 20.0759 181.071 20.6321L171.183 77.0602C171.06 77.7672 171.616 78.4066 172.354 78.4066H180.36C180.943 78.4066 181.44 77.9907 181.531 77.4293L187.521 40.4274C187.708 39.2682 189.344 39.0863 189.793 40.1727L197.248 58.133C197.43 58.5749 197.863 58.8608 198.35 58.8608H200.922C201.404 58.8608 201.831 58.5801 202.019 58.1486L209.693 40.2559C210.158 39.1642 211.81 39.3826 211.965 40.5522L214.308 57.8523C214.383 58.4293 214.885 58.8608 215.484 58.8608H233.87C234.383 58.8608 234.838 58.5385 234.998 58.0654L243.544 32.6455C243.902 31.585 245.448 31.585 245.801 32.6455L254.299 58.0602C254.459 58.5385 254.914 58.8608 255.427 58.8608H264.069C264.887 58.8608 265.459 58.0758 265.192 57.3273L252.015 20.445C251.849 19.9823 251.4 19.6704 250.892 19.6704H238.758C238.255 19.6704 237.806 19.9771 237.64 20.4398" fill="white"/>
<path d="M285.054 34.9539L282.38 34.1741C280.562 33.6023 277.728 32.7186 277.728 30.4313C277.728 28.144 280.295 27.1563 282.22 27.1563C284.327 27.1563 286.359 27.8581 288.086 28.9706C288.68 29.3552 289.487 29.1629 289.814 28.5443L292.808 22.8729C293.113 22.2959 292.867 21.5941 292.274 21.3082C288.814 19.6551 284.396 18.6362 280.728 18.6362C272.653 18.6362 266.824 23.8346 266.824 31.7881C266.824 39.7415 271.155 41.0411 277.733 42.8606C279.979 43.4844 284.097 44.472 284.097 47.3311C284.097 50.1902 281.476 51.2819 279.016 51.2819C275.92 51.2819 273.182 49.9251 270.808 48.1109C270.225 47.669 269.374 47.8458 269.027 48.4748L265.722 54.5153C265.433 55.0455 265.61 55.7057 266.128 56.0332C270.059 58.4816 274.674 59.9112 279.385 59.9112C283.45 59.9112 287.675 58.8195 290.83 56.2203C294.038 53.5692 295.001 49.5664 295.001 45.6677C295.001 39.3257 290.669 36.5705 285.054 34.9591" fill="white"/>
<path d="M81.2378 19.6704C80.58 19.6704 80.0506 20.185 80.0506 20.8244V39.1538C80.0506 44.2482 79.6762 49.8105 72.938 49.8105C66.1998 49.8105 65.8254 44.2482 65.8254 39.1538V20.8244C65.8254 20.185 65.296 19.6704 64.6382 19.6704H56.531C55.8732 19.6704 55.3438 20.185 55.3438 20.8244V41.7114C55.3438 46.7538 55.5577 51.7442 59.5685 55.539C62.9376 58.762 68.2319 59.9057 72.938 59.9057C77.6441 59.9057 82.9384 58.762 86.3075 55.539C90.3184 51.7442 90.5323 46.7538 90.5323 41.7114V29.5473H98.3133C98.9711 29.5473 99.5005 30.0619 99.5005 30.7013V57.712C99.5005 58.3513 100.03 58.866 100.688 58.866H108.795C109.453 58.866 109.982 58.3513 109.982 57.712V30.7013C109.982 30.0619 110.512 29.5473 111.169 29.5473H119.833C120.491 29.5473 121.02 29.0326 121.02 28.3932V20.8296C121.02 20.1902 120.491 19.6756 119.833 19.6756H81.2378V19.6704Z" fill="white"/>
<path d="M20.3906 7.36578L0.0849687 57.3012C-0.225204 58.0601 0.352358 58.8815 1.19196 58.8815H9.75914C10.2511 58.8815 10.6897 58.5852 10.8661 58.1433L26.3266 19.0933C26.717 18.1056 28.1556 18.1056 28.546 19.0933L43.8728 58.1381C44.0492 58.5851 44.4877 58.8815 44.9851 58.8815H53.6164C54.4507 58.8815 55.0283 58.0653 54.7234 57.3116L34.8082 7.37098C34.6318 6.92912 34.1932 6.63281 33.7012 6.63281H21.4922C21.0056 6.63281 20.567 6.92392 20.3852 7.36058" fill="white"/>
<path d="M249.026 0.00519847C249.026 0.00519847 252.507 3.18659 252.507 8.87359C252.507 18.7245 242.277 16.51 242.277 16.51C242.277 16.51 242.186 13.4221 243.191 11.4156C244.614 8.57728 246.619 7.50642 246.619 7.50642C246.619 7.50642 244.304 8.08864 242.325 11.3012C241.1 13.2818 240.924 16.0005 240.924 16.0005C240.924 16.0005 237.234 13.3806 239.464 9.40382C241.432 5.88973 245.491 5.60902 247.485 3.91436C249.421 2.26648 249.031 0 249.031 0" fill="white"/>
</svg>
