<?xml version="1.0" standalone="no"?>
<!DOCTYPE svg PUBLIC "-//W3C//DTD SVG 20010904//EN"
 "http://www.w3.org/TR/2001/REC-SVG-20010904/DTD/svg10.dtd">
<svg version="1.0" xmlns="http://www.w3.org/2000/svg"
 width="800.000000pt" height="232.000000pt" viewBox="0 0 800.000000 232.000000"
 preserveAspectRatio="xMidYMid meet">

<g transform="translate(0.000000,232.000000) scale(0.100000,-0.100000)"
fill="#000000" stroke="none">
<path d="M563 2118 c-10 -12 -40 -78 -44 -96 -2 -10 -14 -40 -38 -95 -23 -54
-25 -61 -13 -53 5 3 9 -1 9 -8 0 -8 -5 -12 -11 -10 -10 4 -119 -255 -119 -283
0 -7 -4 -13 -8 -13 -8 0 -24 -55 -28 -98 0 -7 -5 -10 -11 -7 -5 3 -10 -3 -10
-15 0 -11 -7 -32 -16 -45 -9 -14 -14 -32 -10 -40 3 -9 2 -14 -3 -11 -5 3 -18
-18 -29 -47 -18 -48 -19 -54 -4 -72 10 -12 11 -15 2 -7 -19 17 -33 15 -26 -3
3 -8 1 -15 -5 -15 -6 0 -8 -7 -5 -16 3 -8 2 -13 -3 -10 -8 5 -38 -72 -33 -86
1 -5 -3 -8 -9 -8 -6 0 -9 -7 -5 -15 3 -8 0 -15 -6 -15 -6 0 -5 -6 3 -17 9 -11
10 -14 2 -10 -14 9 -47 -59 -36 -76 3 -6 1 -7 -5 -3 -11 6 -15 -5 -11 -30 0
-4 -4 -10 -11 -14 -6 -4 -12 -17 -13 -28 -1 -12 -5 -22 -9 -22 -4 0 -7 -3 -6
-7 1 -5 -8 -28 -19 -53 -34 -76 -36 -88 -16 -98 10 -5 73 -10 140 -11 l122 -2
16 30 c8 17 16 33 16 36 0 2 6 20 14 39 18 43 19 72 3 80 -7 3 -2 3 11 0 21
-5 23 -3 18 15 -3 14 -1 19 6 14 7 -4 8 0 3 13 -4 10 -4 15 0 11 4 -4 18 20
31 54 19 50 21 65 11 78 -10 13 -10 14 2 4 12 -11 18 -3 37 48 13 34 20 65 17
70 -3 5 -1 9 4 9 13 0 33 59 25 74 -3 6 -2 8 2 3 10 -9 37 51 29 64 -3 5 0 9
5 9 6 0 11 7 11 15 0 8 4 23 10 33 20 34 49 120 43 126 -4 3 -1 6 5 6 10 0 28
55 24 73 -1 4 2 7 7 7 5 0 12 12 17 28 10 35 8 31 27 74 20 45 21 51 5 42 -7
-4 -3 3 10 15 12 12 20 26 17 31 -3 5 5 16 17 25 22 15 24 14 46 -10 12 -14
22 -33 22 -41 0 -8 5 -14 10 -14 6 0 9 -3 9 -7 -4 -25 2 -43 13 -37 7 5 8 3 4
-5 -9 -14 13 -73 24 -66 5 3 6 -5 3 -16 -4 -14 0 -25 11 -31 9 -5 14 -13 11
-19 -8 -13 4 -51 15 -44 4 3 6 -4 3 -15 -3 -12 0 -20 6 -20 7 0 10 -4 7 -9 -3
-5 2 -26 11 -47 9 -22 18 -43 19 -49 6 -24 66 -180 77 -199 6 -12 12 -24 13
-28 1 -5 3 -10 4 -13 1 -3 3 -8 4 -12 9 -43 18 -63 26 -58 5 3 12 0 16 -6 4
-8 3 -9 -4 -5 -16 9 -15 -4 1 -43 7 -17 16 -29 19 -25 4 3 4 -3 2 -14 -3 -10
1 -26 10 -34 8 -9 13 -18 10 -21 -3 -3 0 -16 7 -29 7 -12 13 -25 14 -28 2 -26
41 -117 48 -113 6 3 7 1 3 -5 -3 -6 -2 -22 4 -37 l10 -26 136 2 c109 1 137 4
141 16 8 20 -18 94 -30 86 -6 -3 -7 -1 -3 5 4 7 4 18 -1 25 -4 6 -8 17 -9 22
-1 6 -8 24 -15 40 -7 17 -11 34 -10 39 1 5 -6 5 -16 2 -14 -6 -15 -4 -6 5 13
13 -2 69 -19 69 -5 0 -7 4 -3 9 3 6 -7 40 -21 78 -32 81 -30 77 -44 68 -8 -5
-6 -13 7 -28 l18 -22 -23 19 c-20 17 -21 21 -8 35 13 13 13 16 -2 28 -9 8 -11
11 -3 7 15 -8 12 5 -23 91 -12 30 -26 52 -31 48 -4 -5 -5 -3 -2 4 11 18 -11
66 -25 57 -10 -6 -10 -4 -2 7 8 10 8 21 0 42 -7 15 -15 25 -18 21 -4 -3 -4 3
-1 15 3 12 1 21 -6 21 -6 0 -10 3 -9 8 6 16 -85 241 -95 235 -6 -3 -7 -1 -3 5
4 6 4 22 0 36 -4 17 -11 23 -22 19 -13 -5 -14 -3 -5 7 13 14 -3 74 -18 64 -5
-3 -6 1 -4 8 6 16 -38 131 -47 123 -3 -3 -5 5 -5 18 0 13 -10 44 -21 69 l-20
46 -180 2 c-134 0 -182 -3 -189 -12z m127 -298 c-8 -5 -19 -10 -25 -10 -5 0
-3 5 5 10 8 5 20 10 25 10 6 0 3 -5 -5 -10z m-229 -33 c-10 -9 -11 -8 -5 6 3
10 9 15 12 12 3 -3 0 -11 -7 -18z m594 -36 c3 -5 2 -12 -3 -15 -5 -3 -9 1 -9
9 0 17 3 19 12 6z m8 -51 c3 -11 1 -18 -4 -14 -5 3 -9 12 -9 20 0 20 7 17 13
-6z m78 -173 c-10 -9 -11 -8 -5 6 3 10 9 15 12 12 3 -3 0 -11 -7 -18z m-844
-142 c0 -8 -4 -12 -9 -9 -5 3 -6 10 -3 15 9 13 12 11 12 -6z m214 -49 c-6 -7
-8 -16 -4 -20 4 -4 -1 -4 -11 0 -16 6 -17 8 -2 16 9 5 13 14 10 20 -4 7 -2 8
5 4 8 -6 9 -12 2 -20z m514 -126 c10 -11 16 -20 13 -20 -3 0 -13 9 -23 20 -10
11 -16 20 -13 20 3 0 13 -9 23 -20z m-795 -40 c6 -11 8 -20 6 -20 -3 0 -10 9
-16 20 -6 11 -8 20 -6 20 3 0 10 -9 16 -20z m1097 -97 c0 -7 -4 -13 -8 -13 -4
0 -9 6 -12 13 -3 8 0 14 7 14 7 0 13 -6 13 -14z m-1197 -137 c0 -2 -8 -10 -17
-17 -16 -13 -17 -12 -4 4 13 16 21 21 21 13z m20 -40 c-7 -7 -13 -7 -20 0 -6
6 -3 10 10 10 13 0 16 -4 10 -10z m1260 -40 c-1 -5 4 -13 12 -18 11 -8 11 -9
0 -6 -8 2 -13 7 -12 12 1 5 -4 13 -12 18 -11 8 -11 9 0 6 8 -2 13 -7 12 -12z
m-216 -74 c3 -5 -1 -9 -9 -9 -8 0 -12 4 -9 9 3 4 7 8 9 8 2 0 6 -4 9 -8z
m-1149 -42 c4 -6 11 -7 17 -4 7 4 8 2 4 -5 -6 -9 -12 -9 -24 1 -10 7 -19 14
-21 15 -2 2 1 3 7 3 6 0 14 -5 17 -10z m-24 -33 c-10 -9 -11 -8 -5 6 3 10 9
15 12 12 3 -3 0 -11 -7 -18z"/>
<path d="M3733 1936 c-60 -20 -103 -49 -160 -109 -85 -89 -134 -182 -175 -332
-29 -104 -36 -360 -13 -480 65 -348 287 -569 514 -511 170 43 292 198 363 457
20 73 23 108 23 259 -1 209 -19 300 -91 448 -53 110 -148 214 -229 252 -61 28
-171 36 -232 16z m167 -200 c114 -75 190 -279 190 -511 0 -133 -26 -270 -68
-360 -35 -74 -103 -152 -149 -171 -42 -18 -107 -18 -141 0 -47 25 -110 99
-141 166 -56 120 -66 177 -66 370 1 164 3 180 29 260 78 238 213 334 346 246z"/>
<path d="M3693 1483 c-9 -3 -13 -30 -13 -88 l0 -84 -57 -3 -58 -3 -3 -82 -3
-83 61 0 60 0 0 -89 0 -88 80 -6 c44 -4 94 -4 110 0 l30 6 1 83 c2 100 2 100
12 111 5 4 7 1 5 -7 -2 -11 8 -16 41 -18 88 -6 91 -3 91 93 0 96 7 90 -97 85
l-53 -2 0 91 0 91 -53 0 c-29 0 -59 -6 -66 -12 -11 -10 -12 -10 -7 -1 5 10 -3
12 -31 11 -21 -1 -44 -3 -50 -5z m66 -36 c0 -9 -2 -8 -6 1 -2 6 -10 9 -15 6
-7 -4 -8 -2 -4 5 9 13 26 5 25 -12z m56 3 c3 -6 -1 -7 -9 -4 -18 7 -21 14 -7
14 6 0 13 -4 16 -10z"/>
<path d="M4072 1915 c96 -73 196 -240 237 -397 95 -366 7 -763 -217 -969 l-67
-62 117 5 c103 5 125 9 175 34 206 100 336 404 320 748 -11 247 -81 433 -211
562 -94 94 -145 114 -293 114 l-106 0 45 -35z"/>
<path d="M7560 1797 c-3 -3 -17 -8 -30 -10 -101 -19 -162 -54 -219 -126 -52
-65 -70 -131 -68 -241 3 -105 16 -142 71 -192 35 -33 86 -63 86 -51 0 5 4 2 8
-4 4 -7 17 -14 27 -16 11 -2 27 -7 35 -10 50 -18 144 -46 147 -43 2 2 22 -12
43 -32 34 -30 40 -41 40 -75 0 -36 -31 -94 -48 -91 -4 1 -15 -4 -24 -10 -22
-16 -144 -4 -187 19 -18 9 -37 13 -43 9 -7 -5 -8 -3 -3 6 6 10 4 12 -9 7 -9
-4 -15 -3 -12 2 8 13 -21 34 -35 25 -8 -4 -9 -3 -5 4 5 8 0 12 -13 12 -15 0
-32 -24 -70 -99 l-50 -98 22 -21 c27 -25 127 -73 139 -66 4 3 8 0 8 -6 0 -6 5
-8 10 -5 6 4 8 10 5 15 -3 5 -1 11 4 15 6 3 8 -3 6 -14 -3 -16 4 -23 33 -31
61 -17 183 -23 232 -10 39 10 59 14 94 19 5 0 4 7 -2 14 -8 10 -6 13 8 13 10
0 16 -4 14 -8 -10 -16 13 -7 57 21 60 39 113 96 104 112 -5 8 -4 10 3 5 11 -6
14 0 11 20 0 4 5 10 12 14 6 5 12 26 13 48 0 22 4 38 8 35 5 -2 9 15 10 39 5
125 -16 192 -78 252 -20 20 -39 34 -41 32 -3 -2 -13 4 -24 15 -11 11 -24 17
-29 14 -6 -4 -10 -2 -10 3 0 5 -42 21 -92 37 -113 34 -176 67 -184 99 -11 45
0 69 50 104 26 18 45 28 41 22 -5 -8 -2 -10 12 -6 10 3 43 0 73 -8 30 -8 58
-12 62 -10 5 3 8 0 8 -6 0 -7 7 -9 16 -6 8 3 12 2 9 -4 -3 -6 1 -13 9 -16 18
-7 49 14 40 27 -3 5 0 9 6 9 11 0 45 68 42 83 -1 4 2 7 7 7 5 0 14 14 21 31
11 25 11 33 -2 45 -18 19 -139 61 -198 69 -78 11 -165 17 -170 12z m47 -23
c-3 -3 -12 -4 -19 -1 -8 3 -5 6 6 6 11 1 17 -2 13 -5z m276 -64 c10 -12 9 -12
-4 -2 -9 6 -18 9 -21 6 -3 -3 -9 -1 -12 4 -9 15 22 8 37 -8z m47 -5 c0 -2 -6
-5 -13 -8 -8 -3 -14 1 -14 8 0 7 6 11 14 8 7 -3 13 -6 13 -8z m-579 -49 c-7
-8 -8 -16 -3 -18 5 -1 0 -12 -11 -23 -20 -20 -20 -20 -8 3 6 12 9 22 5 22 -3
0 -1 7 6 15 7 8 15 15 17 15 3 0 0 -6 -6 -14z m486 -102 c-3 -3 -12 -4 -19 -1
-8 3 -5 6 6 6 11 1 17 -2 13 -5z m-100 -236 c11 -19 13 -39 2 -32 -5 3 -7 9
-4 14 3 5 -3 13 -12 19 -10 6 -13 11 -6 11 6 0 15 -6 20 -12z m-412 -48 c-3
-5 -12 -10 -18 -10 -7 0 -6 4 3 10 19 12 23 12 15 0z m140 -90 c3 -6 -1 -7 -9
-4 -18 7 -21 14 -7 14 6 0 13 -4 16 -10z m495 -34 c0 -2 -8 -10 -17 -17 -16
-13 -17 -12 -4 4 13 16 21 21 21 13z m-683 -371 c0 -8 -4 -12 -9 -9 -5 3 -6
10 -3 15 9 13 12 11 12 -6z m227 -63 c3 -5 -1 -9 -9 -9 -8 0 -12 4 -9 9 3 4 7
8 9 8 2 0 6 -4 9 -8z m151 -21 c3 -5 2 -12 -3 -15 -5 -3 -9 1 -9 9 0 17 3 19
12 6z"/>
<path d="M1509 1749 c-8 -16 -10 -121 -6 -388 5 -346 11 -436 26 -427 3 2 7
-10 7 -27 1 -17 9 -36 20 -44 11 -8 17 -17 16 -21 -6 -12 31 -60 55 -73 13 -7
23 -16 23 -20 0 -14 60 -40 72 -33 6 4 8 3 5 -3 -8 -13 36 -33 78 -36 17 -1
32 -5 35 -9 3 -4 44 -11 91 -14 151 -12 309 33 399 113 48 43 96 125 84 144
-5 8 -3 9 6 4 10 -6 12 -3 8 13 -4 12 -2 22 3 22 16 0 10 23 -12 46 -15 16
-17 24 -8 29 7 5 10 4 6 -2 -4 -6 -1 -16 7 -22 23 -19 26 8 26 255 0 172 -3
234 -12 234 -6 0 -9 3 -5 6 3 4 54 6 112 5 73 -1 112 2 123 11 10 7 14 9 10 4
-3 -4 0 -15 8 -25 13 -14 15 -78 14 -408 0 -350 1 -391 16 -397 30 -12 239 -7
252 6 16 16 17 758 2 776 -6 6 -7 10 -3 7 3 -3 14 1 22 9 12 11 51 16 151 18
l135 3 3 119 c2 76 -1 123 -9 132 -9 11 -109 13 -541 13 -365 1 -535 -2 -544
-10 -10 -8 -13 -82 -14 -333 0 -178 -4 -337 -9 -354 -5 -17 -7 -33 -4 -35 8
-9 -83 -97 -101 -97 -9 0 -15 -3 -12 -8 2 -4 -28 -5 -67 -1 -86 8 -99 10 -112
26 -5 6 -19 13 -29 15 -13 2 -20 12 -21 28 -1 14 -7 35 -13 47 -7 12 -12 38
-12 57 0 20 -3 36 -7 36 -5 0 -8 141 -8 312 l0 313 -127 3 c-121 2 -128 2
-139 -19z m712 -26 c13 -16 12 -17 -3 -4 -10 7 -18 15 -18 17 0 8 8 3 21 -13z
m203 -274 c-3 -5 -10 -7 -15 -3 -5 3 -7 10 -3 15 3 5 10 7 15 3 5 -3 7 -10 3
-15z m-648 -374 c-1 -8 -5 -17 -8 -21 -5 -4 -4 16 1 34 3 9 9 -1 7 -13z m381
-100 c0 -8 -4 -12 -9 -9 -5 3 -6 10 -3 15 9 13 12 11 12 -6z m158 -205 c-3 -5
-12 -10 -18 -10 -7 0 -6 4 3 10 19 12 23 12 15 0z m-408 -67 c0 -9 -4 -10 -14
-2 -7 6 -13 12 -13 14 0 1 6 2 13 2 8 0 14 -6 14 -14z m197 9 c3 -5 -1 -9 -9
-9 -8 0 -12 4 -9 9 3 4 7 8 9 8 2 0 6 -4 9 -8z m53 -9 c0 -8 -6 -9 -19 -2 -10
5 -18 11 -18 12 0 2 8 3 18 3 10 0 19 -6 19 -13z"/>
<path d="M4924 1758 c-9 -14 -12 -25 -21 -82 -5 -31 -3 -37 7 -31 9 5 11 4 6
-4 -4 -6 -11 -9 -15 -6 -9 5 -44 -192 -36 -205 3 -5 1 -11 -4 -15 -5 -3 -10
-13 -9 -23 0 -18 -4 -40 -22 -135 -6 -33 -9 -66 -6 -74 4 -9 2 -11 -5 -7 -8 5
-10 -3 -7 -25 2 -17 2 -31 -2 -31 -13 0 -27 -129 -16 -141 8 -9 7 -10 -3 -4
-11 6 -13 3 -9 -13 4 -12 2 -22 -3 -22 -5 0 -9 -12 -9 -26 0 -14 4 -23 8 -20
5 3 9 -1 9 -9 0 -8 -5 -13 -11 -12 -13 3 -15 -24 -2 -41 7 -9 5 -12 -4 -10
-10 2 -22 -44 -46 -187 -19 -110 -29 -191 -23 -193 5 -2 9 -8 9 -13 0 -6 -4
-7 -10 -4 -12 7 -22 -32 -24 -91 0 -24 -5 -44 -10 -44 -4 0 -6 -11 -4 -25 3
-14 2 -25 -2 -25 -9 0 -19 -69 -13 -86 5 -14 242 -18 262 -5 13 8 13 12 0 27
-8 10 -9 15 -2 11 15 -10 26 27 27 95 0 26 5 48 11 48 5 0 1 8 -10 17 -15 12
-16 14 -3 10 14 -5 18 6 29 66 6 40 12 91 13 114 0 24 4 43 9 43 4 0 7 9 7 20
0 11 -5 19 -11 17 -6 -1 -13 6 -14 16 -3 15 -1 16 11 6 17 -14 22 -2 26 66 2
40 0 49 -12 47 -8 -2 -11 0 -7 5 5 4 14 8 20 8 12 0 14 8 21 80 2 22 7 48 11
57 4 9 7 42 8 71 1 30 5 53 9 51 4 -3 6 13 5 35 -1 22 0 38 4 35 9 -5 21 94
14 107 -4 5 -1 8 5 7 7 -2 14 5 15 16 2 10 9 24 16 30 9 8 9 6 0 -11 -10 -19
-9 -23 4 -23 10 0 14 5 10 13 -4 6 1 3 10 -8 8 -11 21 -37 27 -58 8 -28 15
-36 27 -32 12 5 13 3 5 -5 -14 -14 27 -127 54 -147 10 -8 11 -13 4 -13 -10 0
-10 -5 -2 -20 7 -12 16 -18 23 -13 7 4 7 0 -2 -10 -9 -11 -10 -17 -2 -17 6 0
10 -3 10 -7 -4 -25 2 -43 13 -37 6 4 8 3 5 -3 -8 -13 12 -73 24 -73 5 0 8 -3
8 -7 -1 -5 -1 -10 1 -13 1 -3 3 -15 6 -28 10 -54 22 -63 76 -60 41 2 54 8 67
28 15 23 15 24 -4 17 -16 -6 -15 -3 5 14 14 11 18 17 10 13 -11 -6 -11 -3 2
12 26 29 60 113 54 130 -3 8 -2 13 3 10 10 -7 61 107 64 141 0 12 5 19 9 17 4
-3 11 8 14 23 4 15 14 38 21 50 8 12 12 26 9 31 -3 6 1 15 9 22 8 7 13 16 10
19 -2 4 1 8 8 8 7 0 23 3 37 6 14 4 19 4 12 1 -8 -4 -10 -10 -3 -18 5 -6 14
-49 21 -96 19 -149 20 -152 39 -138 15 11 15 11 0 -6 -16 -17 -17 -86 -2 -126
3 -8 5 -27 4 -42 -1 -14 2 -29 7 -32 5 -3 7 -17 4 -31 -10 -54 -3 -56 285 -55
262 1 264 1 272 23 5 13 5 27 -1 34 -6 7 -5 14 3 19 8 5 10 3 4 -7 -5 -9 -5
-11 2 -4 17 16 75 204 69 221 -3 8 -2 12 4 9 9 -6 14 11 13 43 -1 7 2 11 5 8
5 -5 48 115 55 154 1 8 6 21 11 28 12 20 -1 27 -21 11 -16 -13 -17 -12 -4 4 7
9 20 17 27 17 8 0 13 3 12 8 0 4 2 14 5 22 4 8 17 46 30 85 23 66 26 70 59 76
32 5 34 4 30 -19 -3 -17 -1 -23 6 -18 7 4 10 2 6 -7 -2 -7 1 -27 7 -43 7 -16
11 -35 10 -43 -1 -8 2 -10 10 -5 8 4 10 3 5 -5 -9 -14 23 -113 34 -106 4 3 6
-3 4 -12 -6 -24 61 -225 71 -215 5 4 5 2 2 -4 -9 -16 13 -75 24 -68 5 3 7 10
4 15 -4 5 -1 9 4 9 15 0 14 -10 -3 -29 -12 -14 -9 -28 18 -106 l31 -90 132 -2
c153 -2 163 2 143 64 -7 21 -20 52 -28 68 -9 17 -15 36 -13 44 1 8 -2 10 -10
5 -8 -4 -10 -3 -5 4 8 14 -14 92 -26 92 -5 0 -7 4 -4 9 8 12 -24 102 -34 96
-5 -3 -12 0 -16 6 -4 8 -3 9 4 5 15 -9 15 5 0 41 -6 15 -11 31 -10 36 1 4 -3
7 -9 7 -5 0 -8 4 -5 8 7 12 -15 82 -26 82 -5 0 -6 5 -3 10 4 6 2 16 -3 23 -6
7 -11 15 -11 20 -2 28 -26 85 -34 80 -6 -3 -7 -2 -4 4 8 13 -23 123 -35 123
-6 0 -7 -8 -3 -17 5 -15 4 -16 -6 -5 -9 8 -10 15 -2 23 12 12 5 52 -7 44 -5
-3 -7 3 -6 12 4 22 -13 74 -27 88 -7 7 -8 6 -3 -2 3 -6 2 -14 -3 -17 -10 -6
-9 12 1 29 3 6 -2 30 -11 55 l-17 45 -182 3 -183 2 -19 -43 c-11 -24 -21 -53
-23 -63 -2 -10 -9 -30 -16 -42 -7 -13 -10 -26 -7 -29 3 -3 -4 -21 -14 -40 -15
-28 -16 -39 -7 -54 6 -10 16 -15 22 -12 5 4 -1 -6 -14 -20 -14 -15 -27 -27
-29 -27 -3 0 2 8 11 18 11 11 13 22 7 32 -7 11 -11 8 -20 -15 -33 -85 -49
-139 -43 -149 3 -6 2 -8 -2 -4 -11 10 -47 -92 -40 -112 4 -8 3 -11 -1 -7 -4 4
-16 -14 -26 -40 -30 -80 -32 -86 -17 -79 8 4 7 1 -3 -6 -9 -8 -32 -60 -52
-117 -44 -125 -40 -119 -68 -114 -24 4 -52 49 -42 65 8 13 -6 69 -16 63 -5 -3
-11 -1 -14 4 -4 5 -1 13 5 17 8 5 9 3 4 -7 -5 -9 -5 -11 2 -4 11 11 -5 158
-16 151 -4 -3 -5 13 -3 35 2 22 0 39 -6 39 -6 0 -8 8 -5 19 2 10 -1 45 -7 77
-7 32 -12 69 -11 81 0 12 -4 25 -9 28 -6 4 -7 -1 -3 -12 3 -10 3 -15 -1 -11
-4 3 -8 12 -10 20 -1 7 -6 20 -11 28 -8 13 -7 13 10 0 17 -14 18 -13 11 20 -4
19 -9 46 -9 60 -2 19 -7 24 -22 22 -18 -2 -18 -2 -3 8 14 8 17 20 13 48 -3 20
-8 60 -11 87 -11 87 -7 85 -154 85 -128 0 -136 -2 -131 -33 1 -5 -3 -6 -8 -3
-8 5 -70 -128 -75 -161 -1 -7 -5 -16 -9 -19 -4 -4 -2 -13 5 -21 8 -10 8 -12
-3 -8 -10 4 -21 -14 -37 -57 -13 -35 -30 -76 -37 -92 -7 -16 -11 -36 -7 -44 3
-10 1 -13 -6 -8 -7 4 -12 1 -12 -7 0 -22 -29 -75 -45 -81 -20 -7 -49 33 -65
89 -10 34 -17 45 -28 40 -11 -4 -12 -2 -4 8 8 10 7 20 -3 40 -8 15 -14 31 -15
35 -3 27 -14 52 -21 52 -5 0 -8 3 -7 8 4 20 -16 61 -35 71 -14 8 -16 10 -4 6
15 -4 17 -1 11 18 -4 12 -11 25 -16 28 -5 3 -9 9 -9 13 2 17 0 17 -16 5 -17
-13 -17 -12 -2 6 15 19 15 55 0 55 -4 0 -7 10 -8 22 -1 11 -7 25 -14 29 -7 4
-67 8 -135 8 -90 1 -124 -2 -130 -11z m1907 -55 c13 -16 12 -17 -3 -4 -10 7
-18 15 -18 17 0 8 8 3 21 -13z m-1261 -207 c0 -2 -8 -10 -17 -17 -16 -13 -17
-12 -4 4 13 16 21 21 21 13z m1354 -67 c-3 -5 -10 -7 -15 -3 -5 3 -7 10 -3 15
3 5 10 7 15 3 5 -3 7 -10 3 -15z m-343 -42 c-10 -9 -11 -8 -5 6 3 10 9 15 12
12 3 -3 0 -11 -7 -18z m-1398 -132 c-3 -9 -8 -14 -10 -11 -3 3 -2 9 2 15 9 16
15 13 8 -4z m1614 -90 c0 -8 -4 -12 -9 -9 -5 3 -6 10 -3 15 9 13 12 11 12 -6z
m-1137 -9 c0 -2 -7 -7 -16 -10 -8 -3 -12 -2 -9 4 6 10 25 14 25 6z m1406 -145
c0 -17 -3 -28 -6 -26 -5 3 -6 38 -1 53 4 10 7 -3 7 -27z m-1269 4 c0 -8 -4
-12 -9 -9 -5 3 -6 10 -3 15 9 13 12 11 12 -6z m240 -99 c0 -8 -6 -12 -15 -9
-11 5 -11 7 0 14 7 5 13 9 14 9 0 0 1 -6 1 -14z m-699 -61 c-3 -3 -9 2 -12 12
-6 14 -5 15 5 6 7 -7 10 -15 7 -18z m-323 -4 c3 -5 2 -12 -3 -15 -5 -3 -9 1
-9 9 0 17 3 19 12 6z m1114 -24 c-2 -1 -13 -9 -24 -17 -19 -14 -19 -14 -6 3 7
9 18 17 24 17 6 0 8 -1 6 -3z m1022 -44 c8 -9 9 -14 2 -10 -6 4 -13 1 -16 -5
-3 -7 -4 -3 -4 10 1 26 1 26 18 5z m-2464 -518 c0 -8 -4 -12 -9 -9 -5 3 -6 10
-3 15 9 13 12 11 12 -6z m23 -89 c0 -2 -8 -10 -17 -17 -16 -13 -17 -12 -4 4
13 16 21 21 21 13z"/>
<path d="M7690 330 l0 -200 25 0 25 0 0 200 0 200 -25 0 -25 0 0 -200z"/>
<path d="M5439 459 c-26 -33 -29 -43 -18 -50 21 -13 22 -12 63 30 37 38 37 40
18 50 -28 15 -26 16 -63 -30z"/>
<path d="M6300 476 c0 -22 5 -25 43 -28 l42 -3 3 -157 3 -158 24 0 24 0 3 158
3 157 43 3 c37 3 42 6 42 28 l0 24 -115 0 -115 0 0 -24z"/>
<path d="M7607 484 c-13 -13 -7 -52 8 -58 27 -10 46 5 43 33 -3 26 -35 41 -51
25z"/>
<path d="M5970 405 c0 -25 -4 -45 -10 -45 -5 0 -10 -11 -10 -25 0 -14 5 -25
10 -25 6 0 10 -37 10 -90 l0 -90 30 0 30 0 0 90 c0 82 2 90 19 90 16 0 18 -5
14 -39 -12 -88 29 -141 108 -141 36 0 55 6 78 26 37 31 38 38 9 51 -18 8 -26
6 -38 -10 -29 -36 -100 -19 -100 24 0 17 8 19 81 19 l82 0 -6 38 c-14 84 -111
121 -176 66 -30 -25 -31 -25 -31 -5 0 14 -6 21 -20 21 -17 0 -20 7 -20 45 0
43 -1 45 -30 45 -29 0 -30 -2 -30 -45z m238 -97 c22 -22 13 -28 -40 -28 -50 0
-51 0 -33 20 20 22 55 26 73 8z"/>
<path d="M5363 350 c-19 -11 -35 -31 -39 -47 -3 -15 -8 -34 -10 -42 -8 -26 17
-90 43 -110 35 -28 105 -28 144 0 33 23 37 44 12 58 -13 7 -24 3 -45 -14 -17
-15 -35 -21 -48 -18 -23 6 -52 42 -44 55 3 4 39 8 80 8 l74 0 0 36 c0 79 -92
120 -167 74z m103 -47 c17 -17 16 -18 -30 -21 -55 -4 -64 1 -46 23 17 20 54
19 76 -2z"/>
<path d="M5770 343 c-33 -30 -48 -88 -36 -138 19 -74 123 -102 185 -49 37 30
37 35 10 52 -17 11 -22 10 -38 -9 -30 -38 -101 -22 -101 22 0 17 8 19 81 19
l82 0 -6 38 c-9 52 -55 92 -107 92 -29 0 -48 -7 -70 -27z m108 -35 c22 -22 13
-28 -40 -28 -50 0 -51 0 -33 20 20 22 55 26 73 8z"/>
<path d="M6586 363 c-4 -4 -22 -6 -41 -5 l-35 3 0 -116 0 -115 25 0 c24 0 25
2 25 73 0 85 18 122 55 113 17 -4 25 0 33 18 9 20 8 25 -4 30 -21 8 -49 8 -58
-1z"/>
<path d="M6675 337 c-30 -30 -35 -42 -35 -81 0 -53 20 -100 49 -116 27 -14 94
-13 110 3 11 9 14 9 18 0 3 -7 16 -13 29 -13 24 0 24 0 24 115 l0 115 -37 0
c-21 0 -57 2 -80 6 -39 6 -46 3 -78 -29z m111 -25 c16 -10 34 -48 34 -70 0
-32 -33 -64 -65 -64 -33 0 -65 32 -65 67 0 49 60 91 96 67z"/>
<path d="M6975 361 c-3 -5 -21 -7 -40 -4 l-35 6 0 -117 0 -116 25 0 c24 0 25
2 25 69 0 88 12 121 43 121 39 0 47 -18 47 -108 l0 -83 28 3 c25 3 27 6 30 58
5 78 -6 138 -29 161 -20 20 -83 27 -94 10z"/>
<path d="M7163 350 c-64 -38 -67 -152 -6 -199 28 -23 82 -28 114 -11 18 10 19
7 19 -60 l0 -70 30 0 30 0 0 176 0 177 -40 -6 c-22 -3 -43 -1 -46 4 -9 16 -68
10 -101 -11z m109 -47 c23 -28 28 -50 17 -82 -24 -70 -119 -49 -119 26 0 60
67 97 102 56z"/>
<path d="M7813 350 c-41 -25 -53 -48 -53 -105 0 -40 5 -52 34 -81 29 -29 41
-34 80 -34 53 0 90 20 112 61 29 58 7 135 -48 165 -34 19 -89 17 -125 -6z
m109 -47 c23 -28 28 -50 17 -81 -28 -82 -146 -43 -125 42 13 53 76 76 108 39z"/>
<path d="M5100 279 c0 -116 22 -148 101 -149 36 0 50 5 70 26 21 22 24 37 27
115 l4 89 -31 0 -30 0 -3 -86 c-3 -78 -5 -88 -25 -95 -40 -15 -56 10 -61 100
-4 77 -6 81 -28 81 -23 0 -24 -2 -24 -81z"/>
<path d="M5520 356 c0 -3 25 -58 56 -123 l55 -118 16 30 c9 17 36 72 59 123
l43 92 -30 0 c-27 0 -33 -6 -58 -62 l-28 -63 -28 63 c-25 55 -31 62 -56 62
-16 0 -29 -2 -29 -4z"/>
<path d="M7380 270 c0 -83 2 -93 25 -115 33 -34 103 -35 141 -1 26 21 28 30
32 115 l4 91 -31 0 -31 0 0 -77 c0 -43 -4 -83 -8 -89 -15 -22 -42 -24 -62 -4
-16 16 -20 34 -20 95 0 73 -1 75 -25 75 -25 0 -25 -1 -25 -90z"/>
<path d="M7600 244 l0 -115 28 3 27 3 3 113 3 112 -31 0 -30 0 0 -116z"/>
</g>
</svg>
