<svg width="64" height="32" viewBox="0 0 64 32" fill="none" xmlns="http://www.w3.org/2000/svg">
<g clip-path="url(#clip0_182_2956)">
<path d="M5.77192 5.53464C6.23615 4.18922 6.67918 2.91033 7.12095 1.63143C7.54026 0.414033 8.09685 0.00363135 9.38973 0.0023763C14.3191 -0.00138885 19.2486 -0.0001338 24.178 0.0023763C25.054 0.0023763 25.854 0.208204 26.5441 0.804353C27.0932 1.27751 27.7908 1.34904 28.4859 1.3503C31.0654 1.35406 33.6437 1.37666 36.2232 1.34026C37.3751 1.32394 38.2 1.77576 38.8514 2.71203C40.1617 4.59711 41.5981 6.40062 42.8174 8.34218C43.7858 9.88464 45.0974 10.4092 46.8108 10.5348C50.2277 10.7858 53.6346 11.1698 57.0453 11.4974C57.6243 11.5526 58.2034 11.6053 58.7837 11.6492C59.7596 11.722 60.4722 12.1877 60.9015 13.0725C61.2209 13.7301 61.5205 14.3978 61.8349 15.0567C62.112 15.639 62.5612 16.0017 63.1927 16.1561C63.8716 16.3218 64.1162 16.6707 63.9502 17.3396C63.6669 18.4742 63.345 19.6 63.0055 20.7182C62.8033 21.3821 62.2917 21.7436 61.6253 21.834C61.186 21.893 61.0887 22.0712 61.1573 22.5004C61.9148 27.183 58.5965 31.4753 53.868 31.9484C49.3329 32.4027 45.2409 28.9765 44.9501 24.4445C44.9102 23.8245 44.5695 23.8634 44.1627 23.8646C39.9621 23.8659 35.7602 23.8646 31.5596 23.8646C28.8977 23.8646 26.2346 23.8759 23.5727 23.8559C23.0373 23.8521 22.8202 23.9688 22.784 24.5763C22.5606 28.3188 19.2872 31.5606 15.5446 31.9547C11.0245 32.4316 7.1559 29.1434 6.57185 25.0532C6.44082 24.1395 6.41836 23.217 6.62177 22.3096C6.73409 21.8089 6.64798 21.588 6.07642 21.6043C4.93329 21.6357 3.78892 21.6143 2.6458 21.5993C1.2693 21.583 0.872455 21.1788 0.886182 19.7882C0.892422 19.0402 0.78385 18.2797 1.05715 17.5505C1.1183 17.3873 1.05715 17.2731 0.928612 17.1715C0.223519 16.6104 0.0475579 15.7934 0.0350784 14.9814C-0.00984792 12.3458 -0.00735201 9.70893 0.0201029 7.07458C0.0338304 5.74423 1.14825 4.60088 2.46484 4.4942C3.6766 4.39505 4.82971 4.53562 5.77192 5.53464ZM14.9256 9.16047C17.2955 9.16047 19.6666 9.15043 22.0365 9.168C22.5332 9.17177 22.7416 9.03497 22.7316 8.4953C22.7029 6.84365 22.7079 5.19201 22.7291 3.54036C22.7353 3.06846 22.5631 2.92915 22.1101 2.93041C17.8895 2.94296 13.669 2.94296 9.44838 2.92915C9.01534 2.9279 8.81817 3.0785 8.7071 3.49141C8.26408 5.14557 7.78986 6.79094 7.33685 8.44258C7.1509 9.12157 7.18085 9.15922 7.87721 9.15922C10.2271 9.16298 12.5758 9.16047 14.9256 9.16047ZM41.0303 9.61606C39.5964 7.65943 38.2399 5.81326 36.8909 3.9608C36.6999 3.6985 36.4453 3.69473 36.1708 3.69473C33.2618 3.69599 30.3541 3.70728 27.4451 3.68469C26.9047 3.68093 26.7787 3.88801 26.7874 4.38501C26.8124 5.88856 26.8274 7.39462 26.7874 8.89691C26.7712 9.52318 26.9996 9.66375 27.5786 9.65998C31.8379 9.6399 36.0959 9.64869 40.3552 9.64743C40.5374 9.64743 40.7183 9.62986 41.0316 9.6148L41.0303 9.61606Z" fill="#FF671F"/>
</g>
<defs>
<clipPath id="clip0_182_2956">
<rect width="64" height="32" fill="white"/>
</clipPath>
</defs>
</svg>
