<svg width="64" height="32" viewBox="0 0 64 32" fill="none" xmlns="http://www.w3.org/2000/svg">
<g clip-path="url(#clip0_182_2516)">
<path d="M5.77185 5.53464C6.23609 4.18922 6.67912 2.91033 7.12089 1.63143C7.5402 0.414033 8.09679 0.00363135 9.38967 0.0023763C14.3191 -0.00138885 19.2485 -0.0001338 24.1779 0.0023763C25.054 0.0023763 25.8539 0.208204 26.544 0.804353C27.0931 1.27751 27.7907 1.34904 28.4858 1.3503C31.0654 1.35406 33.6436 1.37666 36.2231 1.34026C37.375 1.32394 38.1999 1.77576 38.8513 2.71203C40.1617 4.59711 41.5981 6.40062 42.8173 8.34218C43.7857 9.88464 45.0973 10.4092 46.8108 10.5348C50.2277 10.7858 53.6346 11.1698 57.0452 11.4974C57.6243 11.5526 58.2033 11.6053 58.7836 11.6492C59.7595 11.722 60.4721 12.1877 60.9014 13.0725C61.2209 13.7301 61.5204 14.3978 61.8349 15.0567C62.1119 15.639 62.5612 16.0017 63.1926 16.1561C63.8715 16.3218 64.1161 16.6707 63.9502 17.3396C63.6669 18.4742 63.3449 19.6 63.0055 20.7182C62.8033 21.3821 62.2916 21.7436 61.6252 21.834C61.1859 21.893 61.0886 22.0712 61.1572 22.5004C61.9147 27.183 58.5964 31.4753 53.8679 31.9484C49.3329 32.4027 45.2409 28.9765 44.9501 24.4445C44.9101 23.8245 44.5695 23.8634 44.1626 23.8646C39.962 23.8659 35.7602 23.8646 31.5595 23.8646C28.8977 23.8646 26.2345 23.8759 23.5726 23.8559C23.0373 23.8521 22.8201 23.9688 22.7839 24.5763C22.5606 28.3188 19.2872 31.5606 15.5446 31.9547C11.0245 32.4316 7.15583 29.1434 6.57179 25.0532C6.44076 24.1395 6.41829 23.217 6.62171 22.3096C6.73403 21.8089 6.64792 21.588 6.07635 21.6043C4.93323 21.6357 3.78886 21.6143 2.64573 21.5993C1.26924 21.583 0.872393 21.1788 0.886121 19.7882C0.892361 19.0402 0.783789 18.2797 1.05709 17.5505C1.11824 17.3873 1.05709 17.2731 0.928551 17.1715C0.223458 16.6104 0.0474969 15.7934 0.0350173 14.9814C-0.00990895 12.3458 -0.00741304 9.70893 0.0200419 7.07458C0.0337694 5.74423 1.14819 4.60088 2.46478 4.4942C3.67654 4.39505 4.82965 4.53562 5.77185 5.53464ZM14.9256 9.16047C17.2954 9.16047 19.6666 9.15043 22.0364 9.168C22.5331 9.17177 22.7415 9.03497 22.7315 8.4953C22.7028 6.84365 22.7078 5.19201 22.729 3.54036C22.7353 3.06846 22.5631 2.92915 22.11 2.93041C17.8895 2.94296 13.6689 2.94296 9.44832 2.92915C9.01528 2.9279 8.81811 3.0785 8.70704 3.49141C8.26402 5.14557 7.78979 6.79094 7.33679 8.44258C7.15084 9.12157 7.18079 9.15922 7.87715 9.15922C10.227 9.16298 12.5757 9.16047 14.9256 9.16047ZM41.0303 9.61606C39.5964 7.65943 38.2398 5.81326 36.8908 3.9608C36.6999 3.6985 36.4453 3.69473 36.1707 3.69473C33.2618 3.69599 30.354 3.70728 27.445 3.68469C26.9047 3.68093 26.7786 3.88801 26.7874 4.38501C26.8123 5.88856 26.8273 7.39462 26.7874 8.89691C26.7712 9.52318 26.9995 9.66375 27.5786 9.65998C31.8378 9.6399 36.0959 9.64869 40.3551 9.64743C40.5373 9.64743 40.7183 9.62986 41.0315 9.6148L41.0303 9.61606Z" fill="#FF671F"/>
</g>
<defs>
<clipPath id="clip0_182_2516">
<rect width="64" height="32" fill="white"/>
</clipPath>
</defs>
</svg>
